<svg version="1.1" id="Layer_1" xmlns="http://www.w3.org/2000/svg" xmlns:xlink="http://www.w3.org/1999/xlink" x="0px" y="0px"
	 width="100%" viewBox="0 0 496 496" enable-background="new 0 0 496 496" xml:space="preserve">
<path fill="#000000" opacity="1.000000" stroke="none" 
	d="
M168.665665,214.883453 
	C168.664978,188.571442 168.668442,162.748810 168.665085,136.926178 
	C168.664215,130.238739 168.654434,130.224213 162.185394,130.207626 
	C155.021759,130.189270 147.858032,130.204941 140.694351,130.197662 
	C138.078278,130.195007 135.626221,130.167801 135.669327,126.396759 
	C135.713577,122.525139 138.320770,122.816643 140.849289,122.817062 
	C176.334503,122.822929 211.823013,122.542274 247.303894,122.939156 
	C275.160370,123.250755 301.040741,130.448074 322.786102,148.716339 
	C344.430878,166.900085 356.810028,190.562271 362.068878,218.132004 
	C362.153656,218.576447 361.892242,219.086929 361.808624,219.488525 
	C360.764648,220.393814 359.571320,220.336060 358.414703,220.336975 
	C347.752502,220.345490 337.089417,220.259811 326.428619,220.379623 
	C323.067139,220.417389 321.878479,219.216003 321.562042,215.781097 
	C319.854034,197.242950 315.989929,179.246109 306.318695,163.018066 
	C293.902649,142.184341 275.135742,131.605957 251.219147,130.407104 
	C238.089600,129.748947 224.899139,130.399719 211.743683,130.113617 
	C207.204361,130.014908 206.135635,131.714920 206.160477,135.944382 
	C206.313095,161.932678 206.117462,187.923325 206.332687,213.910736 
	C206.373734,218.867081 205.085037,220.706818 199.905289,220.466202 
	C191.260895,220.064636 182.582062,220.244049 173.922195,220.410843 
	C170.218887,220.482178 168.106354,219.471451 168.665665,214.883453 
z"/>
<path fill="#000000" opacity="1.000000" stroke="none" 
	d="
M281.577820,371.879578 
	C267.746429,375.703857 254.011276,376.420685 240.145782,376.363495 
	C208.331665,376.232300 176.516647,376.319763 144.701996,376.317535 
	C143.202896,376.317413 141.702728,376.270111 140.204941,376.312103 
	C137.607452,376.384918 135.634720,375.972015 135.656357,372.607483 
	C135.678955,369.096832 137.994751,369.077637 140.397476,369.063538 
	C146.560303,369.027405 152.723557,369.064148 158.886444,369.034332 
	C169.994675,368.980621 168.626160,370.009003 168.650925,359.018585 
	C168.702332,336.198761 168.773239,313.377899 168.584656,290.559540 
	C168.547424,286.054443 169.802658,284.392700 174.471619,284.569550 
	C183.120728,284.897125 191.801025,284.906677 200.448914,284.561890 
	C205.221725,284.371582 206.341461,286.243500 206.312103,290.644775 
	C206.152145,314.629639 206.368729,338.617493 206.124542,362.600922 
	C206.072845,367.678528 207.596252,369.256531 212.645157,369.103333 
	C223.795074,368.765106 234.962784,368.915466 246.122147,369.003387 
	C282.559814,369.290375 303.438049,349.588898 313.821594,319.103821 
	C317.212250,309.149170 319.299072,298.914490 320.684479,288.519714 
	C320.942291,286.585205 321.234253,284.752472 323.709900,284.746643 
	C335.661530,284.718506 347.613281,284.733978 360.467529,284.733978 
	C356.934143,301.254578 350.723877,315.731781 341.606384,328.947876 
	C326.862213,350.319977 306.813538,364.405853 281.577820,371.879578 
z"/>
<path fill="#000000" opacity="1.000000" stroke="none" 
	d="
M184.847443,261.338074 
	C176.672897,261.297150 176.671555,261.297150 176.652466,253.444626 
	C176.646820,251.122696 176.639084,248.800644 176.653015,246.478790 
	C176.690643,240.209702 177.047012,239.807327 183.492950,240.002365 
	C187.644287,240.127960 191.934235,240.263290 194.998276,243.652496 
	C197.907959,246.870972 198.670578,250.815048 197.034164,254.780975 
	C194.929688,259.881317 190.582245,261.579498 184.847443,261.338074 
M183.194046,245.792969 
	C181.554047,247.838654 182.463196,250.245529 182.255463,252.491531 
	C181.863403,256.730316 184.378815,257.257599 187.585922,256.375641 
	C191.016724,255.432129 192.349625,252.908813 191.652390,249.496887 
	C190.753860,245.099945 187.416992,245.037750 183.194046,245.792969 
z"/>
<path fill="#000000" opacity="1.000000" stroke="none" 
	d="
M259.099457,259.640045 
	C255.848740,262.313812 253.933655,261.421326 253.841919,257.683380 
	C253.766235,254.599411 252.866272,253.191803 249.518585,253.192505 
	C246.112625,253.193207 245.141403,254.714691 245.301727,257.758209 
	C245.392059,259.473328 245.227615,261.188141 242.802292,261.204376 
	C240.272934,261.221283 239.803085,259.557343 239.792953,257.555206 
	C239.769394,252.900833 239.792557,248.246262 239.780838,243.591812 
	C239.776031,241.686798 240.417328,240.285370 242.555099,240.237183 
	C244.752075,240.187653 245.446487,241.621033 245.306458,243.517044 
	C245.073288,246.674393 246.333038,247.982361 249.607910,248.009094 
	C253.070740,248.037369 253.908127,246.329300 253.763779,243.365768 
	C253.666656,241.371353 254.624344,240.190521 256.725250,240.260727 
	C258.986481,240.336258 259.332123,241.929306 259.321899,243.733063 
	C259.292694,248.884979 259.252502,254.036819 259.099457,259.640045 
z"/>
<path fill="#000000" opacity="1.000000" stroke="none" 
	d="
M288.199585,246.860199 
	C290.289368,251.552444 292.652679,255.733780 293.757874,260.478210 
	C291.386261,261.688293 289.687622,261.587494 287.922699,259.557800 
	C284.939697,256.127258 280.338531,256.311035 276.997192,259.690552 
	C275.371735,261.334595 275.371765,261.334625 271.272369,260.378937 
	C273.776154,253.881042 276.217407,247.406174 279.829559,241.547852 
	C281.373047,239.044540 284.213684,239.457260 285.982666,242.014511 
	C286.906769,243.350403 287.369354,245.005569 288.199585,246.860199 
z"/>
<path fill="#000000" opacity="1.000000" stroke="none" 
	d="
M220.273224,245.190186 
	C218.442001,245.336685 216.707184,244.990524 216.602631,247.251923 
	C217.605103,249.237137 219.477432,248.426117 221.019089,248.659882 
	C222.665909,248.909607 225.153427,248.055496 225.025253,250.968826 
	C224.905579,253.688858 222.521484,252.996796 220.823013,253.202911 
	C219.281845,253.389938 217.435486,252.775055 216.410583,255.019913 
	C218.050674,257.837189 220.826981,256.338562 223.026260,256.696869 
	C224.779160,256.982452 227.082764,256.528046 226.893982,259.294312 
	C226.730759,261.686127 224.599457,261.315826 223.027863,261.304443 
	C207.760178,261.193939 210.885925,263.060913 210.713013,249.612289 
	C210.590378,240.072662 208.748795,239.895462 220.349014,239.959763 
	C221.179062,239.964371 222.012039,239.947372 222.838379,240.009933 
	C224.508850,240.136398 226.413788,240.157425 226.557999,242.412170 
	C226.704773,244.706619 224.894943,244.964294 223.167206,245.100601 
	C222.340637,245.165833 221.508392,245.159012 220.273224,245.190186 
z"/>
<path fill="#000000" opacity="1.000000" stroke="none" 
	d="
M314.165253,256.007202 
	C316.474426,256.446564 318.608704,256.616943 320.742371,256.795105 
	C322.019745,256.901794 322.994232,257.376770 323.064423,258.842621 
	C323.146179,260.548920 322.143311,261.246002 320.610016,261.262970 
	C316.465820,261.308746 312.320038,261.358215 308.176727,261.291107 
	C304.250122,261.227539 304.013214,259.087311 305.918823,256.447815 
	C308.427094,252.973587 311.228210,249.710815 314.076019,246.140762 
	C312.060516,244.659012 310.016724,245.377930 308.170074,245.110062 
	C306.630585,244.886734 305.088989,244.663483 304.993073,242.683884 
	C304.895264,240.664352 306.424652,240.146301 307.961517,240.107941 
	C311.936066,240.008804 315.932220,239.863037 319.886871,240.165573 
	C323.167023,240.416504 323.650482,242.344604 321.863373,245.001190 
	C319.382904,248.688400 315.725861,251.511093 314.165253,256.007202 
z"/>
<path fill="#000000" opacity="1.000000" stroke="none" 
	d="
M339.589661,242.274734 
	C341.099854,244.209610 341.506104,246.533890 343.519836,247.611420 
	C346.976685,245.818344 346.465424,238.734985 352.769714,240.679871 
	C353.397095,243.569595 351.296661,245.146347 350.243347,247.066086 
	C348.260437,250.680008 345.720184,254.001022 346.155060,258.516754 
	C346.320892,260.238922 345.224915,261.262207 343.361328,261.202271 
	C342.105225,261.161865 340.770721,260.828430 340.874847,259.399536 
	C341.353973,252.824005 336.719360,248.455002 334.138397,243.200073 
	C333.800659,242.512390 333.731659,241.692719 333.535675,240.924286 
	C336.029358,239.467621 337.842255,240.054092 339.589661,242.274734 
z"/>
</svg>